<svg xmlns="http://www.w3.org/2000/svg" viewBox="0 0 64 64" enable-background="new 0 0 64 64">
    <ellipse cx="53.7" cy="33" rx="8.3" ry="8.2" fill="#89664c" id="earlobe-right" />
    <ellipse cx="53.7" cy="33" rx="5.4" ry="5.4" fill="#ffc5d3" id="ear-right" />
    <ellipse cx="10.2" cy="33" rx="8.2" ry="8.2" fill="#89664c" id="earlobe-left" />
    <ellipse cx="10.2" cy="33" rx="5.4" ry="5.4" fill="#ffc5d3" id="ear-left" />
    <g fill="#89664c" id="head-main">
        <path d="m43.4 10.8c1.1-.6 1.9-.9 1.9-.9-3.2-1.1-6-1.8-8.5-2.1 1.3-1 2.1-1.3 2.1-1.3-20.4-2.9-30.1 9-30.1 19.5h46.4c-.7-7.4-4.8-12.4-11.8-15.2" id="head-hair" />
        <path d="m55.3 27.6c0-9.7-10.4-17.6-23.3-17.6-12.9 0-23.3 7.9-23.3 17.6 0 2.3.6 4.4 1.6 6.4-1 2-1.6 4.2-1.6 6.4 0 9.7 10.4 17.6 23.3 17.6 12.9 0 23.3-7.9 23.3-17.6 0-2.3-.6-4.4-1.6-6.4 1-2 1.6-4.2 1.6-6.4" id="head-jaw" />
    </g>
    <path d="m52 28.2c0-16.9-20-6.1-20-6.1s-20-10.8-20 6.1c0 4.7 2.9 9 7.5 11.7-1.3 1.7-2.1 3.6-2.1 5.7 0 6.1 6.6 11 14.7 11s14.7-4.9 14.7-11c0-2.1-.8-4-2.1-5.7 4.4-2.7 7.3-7 7.3-11.7" fill="#e0ac7e" id="face-light" />
    <g fill="#3b302a" id="face-parts">
        <path d="m35.1 38.7c0 1.1-.4 2.1-1 2.1s-1-.9-1-2.1c0-1.1.4-2.1 1-2.1s1 1 1 2.1" id="nostril-right" />
        <path d="m30.9 38.7c0 1.1-.4 2.1-1 2.1-.6 0-1-.9-1-2.1 0-1.1.4-2.1 1-2.1.5.1 1 1 1 2.1" id="nostril-left" />
        <ellipse cx="40.7" cy="31.7" rx="3.5" ry="4.5" id="eye-right" />
        <ellipse cx="23.3" cy="31.7" rx="3.5" ry="4.5" id="eye-left"/>
        <path d="m41.8 44.5c1.4 1.2-2.9 6.9-9.8 7-6.9 0-11.3-5.8-9.8-7 .4-.3 5.2.9 9.8.9 4.7 0 9.5-1.2 9.8-.9" id="mouth" />
    </g>
</svg>
